<?xml version="1.0" standalone="no"?>
<!DOCTYPE svg PUBLIC "-//W3C//DTD SVG 20010904//EN"
 "http://www.w3.org/TR/2001/REC-SVG-20010904/DTD/svg10.dtd">
<svg version="1.0" xmlns="http://www.w3.org/2000/svg"
 width="32.000000pt" height="32.000000pt" viewBox="0 0 32.000000 32.000000"
 preserveAspectRatio="xMidYMid meet">
<metadata>
Created by potrace 1.11, written by Peter Selinger 2001-2013
</metadata>
<g transform="translate(0.000000,32.000000) scale(0.100000,-0.100000)"
fill="#000000" stroke="none">
<path d="M102 237 c-18 -19 -22 -35 -22 -83 0 -69 15 -104 25 -61 7 25 8 26
31 10 20 -13 30 -14 49 -5 20 9 25 9 25 -2 0 -18 30 -16 31 3 5 59 -4 118 -22
136 -11 11 -19 14 -19 7 0 -6 4 -12 9 -12 5 0 12 -14 16 -31 5 -22 3 -36 -9
-47 -10 -11 -16 -12 -16 -4 0 16 -67 16 -73 0 -3 -9 -10 -7 -20 7 -17 22 -13
61 10 83 12 13 17 22 10 22 -2 0 -13 -10 -25 -23z m83 -97 c4 -6 -5 -10 -19
-10 -14 0 -26 5 -26 10 0 6 9 10 19 10 11 0 23 -4 26 -10z"/>
<path d="M53 240 c-21 -8 -23 -17 -25 -82 -2 -103 0 -111 23 -131 16 -13 40
-17 103 -17 44 0 91 3 102 6 31 8 44 45 44 123 0 68 -10 93 -43 104 -15 6 -16
4 -7 -13 6 -11 10 -37 10 -58 0 -20 1 -49 4 -64 3 -21 -2 -33 -21 -48 -27 -21
-43 -19 -43 6 0 12 -4 12 -20 4 -14 -7 -26 -7 -39 -1 -15 9 -20 7 -24 -11 -6
-20 -8 -20 -29 -6 -20 14 -23 24 -25 88 -1 41 3 82 8 92 5 10 8 18 7 17 -2 0
-13 -4 -25 -9z"/>
</g>
</svg>
